<svg width="139" height="16" viewBox="0 0 139 16" fill="none" xmlns="http://www.w3.org/2000/svg">
<path d="M25.333 14V3.49707H28.9805C29.9668 3.49707 30.7456 3.75098 31.3169 4.25879C31.8882 4.7666 32.1738 5.41846 32.1738 6.21436C32.1738 6.7124 32.0615 7.15186 31.8369 7.53271C31.6172 7.91357 31.3047 8.21387 30.8994 8.43359V8.52148C31.0898 8.59473 31.2729 8.69482 31.4487 8.82178C31.6245 8.94873 31.7979 9.10986 31.9688 9.30518C32.1396 9.50049 32.2764 9.74463 32.3789 10.0376C32.4814 10.3257 32.5327 10.6406 32.5327 10.9824C32.5327 11.5977 32.3813 12.1372 32.0786 12.6011C31.7808 13.0649 31.3877 13.4141 30.8994 13.6484C30.4111 13.8828 29.8716 14 29.2808 14H25.333ZM26.9077 12.623H28.9365C29.5127 12.623 29.9766 12.4766 30.3281 12.1836C30.6797 11.8906 30.8555 11.4561 30.8555 10.8799C30.8555 10.499 30.7578 10.1768 30.5625 9.91309C30.3672 9.64941 30.1206 9.46387 29.8228 9.35645C29.5298 9.24414 29.1978 9.18799 28.8267 9.18799H26.9077V12.623ZM26.9077 7.92822H28.8486C29.3662 7.92822 29.7812 7.78418 30.0938 7.49609C30.4111 7.20801 30.5698 6.83203 30.5698 6.36816C30.5698 5.92383 30.4111 5.56494 30.0938 5.2915C29.7812 5.01807 29.376 4.88135 28.8779 4.88135H26.9077V7.92822ZM34.9277 13.0625C34.2246 12.3057 33.873 11.3193 33.873 10.1035C33.873 8.8877 34.2222 7.89404 34.9204 7.12256C35.6187 6.34619 36.5146 5.95801 37.6084 5.95801C37.96 5.95801 38.2896 6.00684 38.5972 6.10449C38.9048 6.20215 39.1611 6.3291 39.3662 6.48535C39.5762 6.6416 39.7422 6.78564 39.8643 6.91748C39.9863 7.04443 40.0889 7.17139 40.1719 7.29834H40.2817V6.15576H41.8564V14H40.311V12.8867H40.2158C39.5957 13.7607 38.751 14.1978 37.6816 14.1978C36.5537 14.1978 35.6357 13.8193 34.9277 13.0625ZM35.4771 10.0815C35.4771 10.8921 35.6992 11.5439 36.1436 12.0371C36.5928 12.5254 37.1812 12.7695 37.9087 12.7695C38.6411 12.7695 39.2271 12.5132 39.6665 12.0005C40.106 11.4878 40.3257 10.8481 40.3257 10.0815C40.3257 9.25635 40.0962 8.60449 39.6372 8.12598C39.1831 7.64258 38.6021 7.40088 37.894 7.40088C37.1812 7.40088 36.6001 7.65234 36.1509 8.15527C35.7017 8.65332 35.4771 9.29541 35.4771 10.0815ZM43.5703 10.0815C43.5703 9.31494 43.7412 8.61914 44.083 7.99414C44.4248 7.36426 44.9058 6.86865 45.5259 6.50732C46.1509 6.14111 46.854 5.95801 47.6353 5.95801C48.5776 5.95801 49.4004 6.22656 50.1035 6.76367C50.8115 7.30078 51.2534 8.01367 51.4292 8.90234H49.8105C49.6738 8.45312 49.4077 8.0918 49.0122 7.81836C48.6216 7.54004 48.1675 7.40088 47.6499 7.40088C46.9175 7.40088 46.3242 7.65479 45.8701 8.1626C45.416 8.67041 45.189 9.31006 45.189 10.0815C45.189 10.8579 45.4209 11.5 45.8848 12.0078C46.3486 12.5156 46.9468 12.7695 47.6792 12.7695C48.1821 12.7695 48.6313 12.6328 49.0269 12.3594C49.4224 12.0859 49.6885 11.7271 49.8252 11.2827H51.4292C51.2583 12.1665 50.8213 12.8745 50.1182 13.4067C49.415 13.9341 48.5923 14.1978 47.6499 14.1978C47.0542 14.1978 46.5 14.0928 45.9873 13.8828C45.4795 13.668 45.0498 13.3774 44.6982 13.0112C44.3467 12.6401 44.0708 12.2031 43.8706 11.7002C43.6704 11.1924 43.5703 10.6528 43.5703 10.0815ZM53.3555 14V2.75H54.9302V9.50293H55.0181L57.9917 6.15576H59.9546L57.2227 9.12207L60.1523 14H58.3652L56.146 10.2939L54.9302 11.627V14H53.3555ZM65.0742 7.44482V6.17041H66.1069C66.2437 6.17041 66.356 6.12402 66.4438 6.03125C66.5317 5.93848 66.5757 5.81396 66.5757 5.65771V3.93652H68.0552V6.15576H70.3403V7.44482H68.0552V11.4658C68.0552 12.2666 68.436 12.667 69.1978 12.667H70.2598V14H68.9561C68.1748 14 67.5669 13.7876 67.1323 13.3628C66.6978 12.9331 66.4805 12.3154 66.4805 11.5098V7.44482H65.0742ZM71.6514 10.0815C71.6514 9.30518 71.8271 8.60205 72.1787 7.97217C72.5352 7.34229 73.0308 6.84912 73.6655 6.49268C74.3003 6.13623 75.0132 5.95801 75.8042 5.95801C76.5952 5.95801 77.3057 6.13867 77.9355 6.5C78.5703 6.86133 79.061 7.35693 79.4077 7.98682C79.7593 8.61182 79.9351 9.31006 79.9351 10.0815C79.9351 10.853 79.7568 11.5537 79.4004 12.1836C79.0488 12.8086 78.5557 13.3018 77.9209 13.6631C77.2861 14.0195 76.5757 14.1978 75.7896 14.1978C74.5884 14.1978 73.5972 13.8096 72.8159 13.0332C72.0396 12.252 71.6514 11.2681 71.6514 10.0815ZM73.2554 10.0815C73.2554 10.8628 73.4922 11.5073 73.9658 12.0151C74.4443 12.5181 75.0522 12.7695 75.7896 12.7695C76.5317 12.7695 77.1396 12.5156 77.6133 12.0078C78.0918 11.5 78.3311 10.8579 78.3311 10.0815C78.3311 9.30029 78.0918 8.6582 77.6133 8.15527C77.1396 7.65234 76.5317 7.40088 75.7896 7.40088C75.0474 7.40088 74.4395 7.65479 73.9658 8.1626C73.4922 8.66553 73.2554 9.30518 73.2554 10.0815ZM86.0215 14V3.49707H87.6401V14H86.0215ZM90.3135 14V3.49707H92.042L97.0225 11.2681H97.1104V3.49707H98.6851V14H96.9419L91.998 6.229H91.9028V14H90.3135ZM100.626 10.7773H102.201C102.21 11.334 102.428 11.7954 102.853 12.1616C103.277 12.5278 103.844 12.7109 104.552 12.7109C105.182 12.7109 105.687 12.5767 106.068 12.3081C106.449 12.0347 106.639 11.6636 106.639 11.1948C106.639 10.8921 106.573 10.6333 106.441 10.4185C106.314 10.2036 106.141 10.0352 105.921 9.91309C105.702 9.78613 105.45 9.67871 105.167 9.59082C104.884 9.50293 104.583 9.42236 104.266 9.34912C103.954 9.27588 103.639 9.19775 103.321 9.11475C103.009 9.02686 102.711 8.91211 102.428 8.77051C102.145 8.62402 101.893 8.44824 101.673 8.24316C101.454 8.0332 101.278 7.75732 101.146 7.41553C101.019 7.07373 100.956 6.67822 100.956 6.229C100.956 5.40381 101.271 4.71045 101.9 4.14893C102.535 3.5874 103.39 3.30664 104.464 3.30664C104.923 3.30664 105.36 3.37012 105.775 3.49707C106.195 3.62402 106.576 3.81201 106.917 4.06104C107.264 4.30518 107.54 4.63477 107.745 5.0498C107.955 5.45996 108.062 5.92871 108.067 6.45605H106.427C106.427 5.93359 106.253 5.521 105.907 5.21826C105.565 4.91064 105.079 4.75684 104.449 4.75684C103.839 4.75684 103.37 4.896 103.043 5.17432C102.721 5.45264 102.56 5.79443 102.56 6.19971C102.56 6.46826 102.625 6.7002 102.757 6.89551C102.889 7.08594 103.065 7.2373 103.285 7.34961C103.504 7.46191 103.758 7.55957 104.046 7.64258C104.334 7.72559 104.637 7.80615 104.955 7.88428C105.272 7.95752 105.589 8.04053 105.907 8.1333C106.224 8.22119 106.527 8.34082 106.815 8.49219C107.103 8.64355 107.357 8.82666 107.577 9.0415C107.796 9.25146 107.972 9.52979 108.104 9.87646C108.236 10.2231 108.302 10.6235 108.302 11.0776C108.302 11.9858 107.96 12.7329 107.276 13.3188C106.598 13.9048 105.67 14.1978 104.493 14.1978C103.365 14.1978 102.438 13.8804 101.71 13.2456C100.987 12.606 100.626 11.7832 100.626 10.7773ZM109.393 4.93994V3.49707H117.237V4.93994H114.125V14H112.513V4.93994H109.393ZM117.171 14L121.053 3.49707H123.023L126.92 14H125.213L124.386 11.7222H119.662L118.834 14H117.171ZM120.167 10.2646H123.873L122.079 5.31348H121.969L120.167 10.2646ZM128.502 14V3.49707H132.149C133.136 3.49707 133.915 3.75098 134.486 4.25879C135.057 4.7666 135.343 5.41846 135.343 6.21436C135.343 6.7124 135.23 7.15186 135.006 7.53271C134.786 7.91357 134.474 8.21387 134.068 8.43359V8.52148C134.259 8.59473 134.442 8.69482 134.618 8.82178C134.793 8.94873 134.967 9.10986 135.138 9.30518C135.309 9.50049 135.445 9.74463 135.548 10.0376C135.65 10.3257 135.702 10.6406 135.702 10.9824C135.702 11.5977 135.55 12.1372 135.248 12.6011C134.95 13.0649 134.557 13.4141 134.068 13.6484C133.58 13.8828 133.041 14 132.45 14H128.502ZM130.077 12.623H132.105C132.682 12.623 133.146 12.4766 133.497 12.1836C133.849 11.8906 134.024 11.4561 134.024 10.8799C134.024 10.499 133.927 10.1768 133.731 9.91309C133.536 9.64941 133.29 9.46387 132.992 9.35645C132.699 9.24414 132.367 9.18799 131.996 9.18799H130.077V12.623ZM130.077 7.92822H132.018C132.535 7.92822 132.95 7.78418 133.263 7.49609C133.58 7.20801 133.739 6.83203 133.739 6.36816C133.739 5.92383 133.58 5.56494 133.263 5.2915C132.95 5.01807 132.545 4.88135 132.047 4.88135H130.077V7.92822Z" fill="white"/>
<path d="M15 7.00125H3.14L6.77 2.64125C6.93974 2.43704 7.0214 2.17375 6.99702 1.90933C6.97264 1.6449 6.84422 1.40099 6.64 1.23125C6.43578 1.06151 6.1725 0.979852 5.90808 1.00423C5.64365 1.02861 5.39974 1.15704 5.23 1.36125L0.23 7.36125C0.196361 7.40898 0.166279 7.45911 0.14 7.51125C0.14 7.56125 0.14 7.59125 0.0700002 7.64125C0.0246737 7.75591 0.000941121 7.87796 0 8.00125C0.000941121 8.12454 0.0246737 8.24659 0.0700002 8.36125C0.0700002 8.41125 0.0699999 8.44125 0.14 8.49125C0.166279 8.54339 0.196361 8.59353 0.23 8.64125L5.23 14.6413C5.32402 14.7541 5.44176 14.8449 5.57485 14.9071C5.70793 14.9694 5.85309 15.0015 6 15.0013C6.23365 15.0017 6.46009 14.9203 6.64 14.7713C6.74126 14.6873 6.82496 14.5842 6.88631 14.4679C6.94766 14.3515 6.98546 14.2242 6.99754 14.0932C7.00961 13.9622 6.99573 13.8302 6.95669 13.7046C6.91764 13.579 6.8542 13.4623 6.77 13.3613L3.14 9.00125H15C15.2652 9.00125 15.5196 8.8959 15.7071 8.70836C15.8946 8.52082 16 8.26647 16 8.00125C16 7.73604 15.8946 7.48168 15.7071 7.29415C15.5196 7.10661 15.2652 7.00125 15 7.00125Z" fill="white"/>
</svg>
